<svg id="Capa_1" data-name="Capa 1" xmlns="http://www.w3.org/2000/svg" viewBox="0 0 1080 1080"><defs><style>.cls-1{fill:#ffe657;}</style></defs><title>navegator-icon</title><rect class="cls-1" x="28.63" y="28.63" width="1022.75" height="1022.75" rx="277.9"/><path d="M378.33,820.83q-67.2-1.58-95.33-28.91t-28.13-85.17V219.18l72.67-12.5V695q0,18,3.12,29.69t10.16,18.75q7.05,7,18.75,10.55a193.57,193.57,0,0,0,28.92,5.87Z"/><path d="M699.84,813l15.28-92.68h-2.29q-22.92,46.36-55.38,74.12T573,822.19q-59.6,0-91.29-38.21T450,669.39q0-39.74,9.55-85.19a296.84,296.84,0,0,1,31.32-84.42,195.17,195.17,0,0,1,57.68-64.56q35.91-25.59,87.87-25.59,43.54,0,72.95,19.32t42.41,58h2.28l11.47-68.13h59.58L759.44,813Zm-106.2-42.78a118.87,118.87,0,0,0,48.14-10.36q23.69-10.38,44.31-33.4a185.79,185.79,0,0,0,27.13-39.92,171.5,171.5,0,0,0,16.41-50.68l14.52-87.53q6.89-41.46-19.47-64.1T654,461.57q-57.32,0-89.77,34.58T522.59,586l-9.15,55.27q-1.56,10.77-2.31,18.82t-.76,15.74q0,44.54,21,69.49T593.64,770.23Z"/></svg>