<svg id="Capa_1" data-name="Capa 1" xmlns="http://www.w3.org/2000/svg" viewBox="0 0 1080 1080"><title>i-icon</title><path d="M688.73,655.36,559.67,787l-15.59-4.61L615,405.45H334.9L317.53,510.39H461.06L424.18,707.46c-3.84,19.15-6.33,33.33-7.39,43.26A287.47,287.47,0,0,0,415,781.2a111.27,111.27,0,0,0,28.72,80.48c19.16,20.21,47.51,30.14,85.8,30.14a156.59,156.59,0,0,0,88.64-26.59,465.29,465.29,0,0,0,87.91-79.42l56.38-64.5Z"/><path d="M509,326c11.34,11,30.84,16.31,58.49,16.31a101.32,101.32,0,0,0,61.67-15.59,67.94,67.94,0,0,0,24.78-45c1.78-11,2.84-19.14,3.55-24.46a99,99,0,0,0,1.11-12.4,52.83,52.83,0,0,0-17-40.07c-11.35-11-30.85-16.31-58.5-16.31A101.29,101.29,0,0,0,521.39,204a67.88,67.88,0,0,0-24.82,45c-1.77,11-2.83,19.14-3.55,24.46a97.24,97.24,0,0,0-1.06,12.4A52.77,52.77,0,0,0,509,326Z"/></svg>